<?xml version="1.0" standalone="no"?><!DOCTYPE svg PUBLIC "-//W3C//DTD SVG 1.1//EN" "http://www.w3.org/Graphics/SVG/1.1/DTD/svg11.dtd"><svg t="1584943700695" class="icon" viewBox="0 0 1024 1024" version="1.1" xmlns="http://www.w3.org/2000/svg" p-id="3084" xmlns:xlink="http://www.w3.org/1999/xlink" width="300" height="300"><defs><style type="text/css"></style></defs><path d="M793.7024 394.1376L535.552 134.2464c-5.7344-5.7344-13.2096-8.4992-20.6848-8.4992-1.024-0.1024-1.8432-0.6144-2.8672-0.6144-4.1984 0-8.0896 1.024-11.6736 2.56-3.584 1.4336-7.0656 3.4816-10.0352 6.4512L257.3312 366.7968c-11.264 11.1616-11.264 29.3888 0 40.6528 5.632 5.632 13.0048 8.4992 20.3776 8.4992 7.3728 0 14.6432-2.8672 20.3776-8.3968l185.344-185.0368v373.9648c0 15.872 12.9024 28.7744 28.7744 28.7744 15.872 0 28.7744-12.9024 28.7744-28.7744V221.0816l212.1728 213.6064c5.632 5.632 13.0048 8.4992 20.3776 8.4992 7.3728 0 14.6432-2.7648 20.2752-8.3968 11.0592-11.1616 11.1616-29.3888-0.1024-40.6528z m34.5088-326.3488H195.7888c-15.872 0-28.7744-12.9024-28.7744-28.7744 0-15.872 12.9024-28.7744 28.7744-28.7744h632.5248c15.872 0 28.7744 12.9024 28.7744 28.7744-0.1024 15.872-12.9024 28.7744-28.8768 28.7744zM235.6224 969.1136V731.8528h-44.3392v-10.4448h104.3456v10.4448h-35.2256v237.2608c0 23.4496-10.0352 34.7136-30.0032 33.8944-14.7456 0-26.9312-6.5536-36.5568-19.5584-2.56-3.4816-2.1504-4.4032 1.3312-2.56 7.7824 3.4816 16.4864 5.2224 26.112 5.2224 9.6256 2.56 14.336-3.072 14.336-16.9984z m152.576-57.344V806.1952h26.112v109.568c-0.9216 4.4032-1.7408 8.2944-2.56 11.776h11.776c18.2272 23.4496 35.2256 41.2672 50.8928 53.4528 13.9264 15.6672 25.6 25.1904 35.2256 28.672 2.56 0.8192 3.8912 1.7408 3.8912 2.56s-1.3312 1.3312-3.8912 1.3312c-28.672 1.7408-46.4896-3.8912-53.4528-16.9984-19.968-19.968-37.376-38.1952-52.1216-54.784-12.1856 14.7456-31.3344 32.5632-57.344 53.4528-7.7824 6.0416-14.7456 9.9328-20.8896 11.776-5.2224 1.7408-17.408 2.56-36.5568 2.56-3.4816-0.9216-5.632-1.7408-6.5536-2.56-0.9216-1.7408 0.4096-2.56 3.8912-2.56 14.7456-6.9632 28.672-15.2576 41.6768-24.7808 42.496-34.816 62.5664-57.4464 59.904-67.8912z m113.4592-186.4704h-195.584v-9.1136h195.584v9.1136zM390.8608 733.184h26.112c-7.7824 28.672-19.1488 43.52-33.8944 44.3392h63.8976c32.1536 0 48.2304 11.264 48.2304 33.8944V948.224h-26.112V808.7552c0-14.7456-8.704-22.1184-26.112-22.1184h-79.5648c-11.264 0-19.968 5.2224-26.112 15.6672V948.224h-24.7808V777.4208h24.7808v22.1184c2.56-13.9264 10.8544-21.2992 24.7808-22.1184-0.9216 0-0.4096-0.4096 1.3312-1.3312 10.4448-6.8608 19.5584-21.1968 27.4432-42.9056zM710.2464 851.7632H538.112v-10.4448h172.1344v10.4448z m-3.8912-105.5744H543.3344v-9.1136h70.4512v-35.2256h26.112v35.2256h66.4576v9.1136z m-148.6848 16.896h26.112c6.9632 33.8944 15.6672 53.8624 26.112 60.0064 0 0.9216 0.4096 1.3312 1.3312 1.3312 2.56 2.56 2.1504 3.4816-1.3312 2.56-27.0336 9.6256-44.3392-11.6736-52.224-63.8976z m26.112 242.5856h-26.112V885.6576h26.112v18.2272c3.4816-12.1856 11.776-18.2272 24.7808-18.2272h37.7856c34.7136-1.7408 50.8928 10.0352 48.2304 35.2256v53.4528c2.56 22.6304-12.5952 33.0752-45.6704 31.3344h-39.1168c-14.7456 0-23.4496-5.632-26.112-16.9984l0.1024 16.9984z m0-95.232v71.68c3.4816 9.5232 13.0048 13.9264 28.672 13.0048h33.8944c14.7456 0 22.1184-6.5536 22.1184-19.5584v-57.344c0.8192-15.6672-7.7824-23.04-26.112-22.1184h-32.5632c-13.0048 0-21.7088 4.8128-26.0096 14.336zM667.2384 761.856h26.112c-5.2224 31.3344-10.8544 49.5616-16.9984 54.784-4.4032 6.9632-16.0768 10.4448-35.2256 10.4448-1.7408 0.9216-2.56 0.9216-2.56 0-0.9216-0.8192 0-2.1504 2.56-3.8912 12.1856-9.6256 20.8896-30.1056 26.112-61.3376z m91.2384 250.2656h-26.112V721.408h26.112v18.2272c0.8192-12.1856 10.4448-18.2272 28.672-18.2272 28.672-0.8192 42.5984 10.4448 41.6768 33.8944v54.784c-0.9216 23.4496-20.8896 36.5568-60.0064 39.1168 37.376 1.7408 57.344 15.6672 60.0064 41.6768v57.344c0.8192 28.672-11.776 42.1888-37.7856 40.448-13.9264 0-24.7808-6.0416-32.5632-18.2272v41.6768z m0-267.264v99.1232c27.8528-3.4816 42.5984-13.9264 44.3392-31.3344v-58.6752c0.8192-17.408-6.0416-25.6-20.8896-24.7808-11.264 0-19.0464 5.2224-23.4496 15.6672zM802.816 946.9952v-57.344c0-20.8896-14.7456-32.5632-44.3392-35.2256v114.688c7.7824 4.4032 15.6672 6.5536 23.4496 6.5536 15.6672 1.7408 22.6304-7.8848 20.8896-28.672z" p-id="3085"></path></svg>